<svg width="725" height="429" viewBox="0 0 725 429" fill="none" xmlns="http://www.w3.org/2000/svg">
<rect width="725" height="429" fill="black"/>
<path d="M254.463 142.855H236.991C236.878 140.355 236.366 138.139 235.457 136.207C234.577 134.247 233.355 132.585 231.793 131.222C230.259 129.83 228.455 128.793 226.381 128.111C224.307 127.401 222.006 127.045 219.477 127.045C214.79 127.045 210.543 128.224 206.736 130.582C202.957 132.912 199.847 136.307 197.403 140.767C194.96 145.227 193.426 150.639 192.801 157.003C192.176 163.281 192.602 168.551 194.08 172.812C195.585 177.074 197.915 180.284 201.068 182.443C204.222 184.602 208 185.682 212.403 185.682C215.017 185.682 217.489 185.355 219.818 184.702C222.148 184.02 224.264 183.026 226.168 181.719C228.071 180.412 229.719 178.821 231.111 176.946C232.503 175.043 233.54 172.898 234.222 170.511L251.778 170.554C250.813 174.616 249.193 178.494 246.92 182.188C244.676 185.852 241.835 189.119 238.398 191.989C234.96 194.83 231.011 197.074 226.551 198.722C222.091 200.369 217.176 201.193 211.807 201.193C203.966 201.193 197.134 199.403 191.31 195.824C185.514 192.216 181.168 187.017 178.27 180.227C175.401 173.437 174.435 165.27 175.372 155.724C176.31 146.349 178.838 138.366 182.957 131.776C187.105 125.185 192.347 120.17 198.682 116.733C205.045 113.267 212.006 111.534 219.562 111.534C224.591 111.534 229.207 112.23 233.412 113.622C237.616 115.014 241.253 117.06 244.321 119.759C247.418 122.429 249.847 125.71 251.608 129.602C253.369 133.466 254.321 137.884 254.463 142.855ZM291.377 201.278C284.815 201.278 279.275 199.858 274.758 197.017C270.241 194.176 266.931 190.213 264.829 185.128C262.755 180.014 262.045 174.077 262.698 167.315C263.352 160.611 265.212 154.73 268.281 149.673C271.349 144.616 275.397 140.696 280.425 137.912C285.454 135.099 291.221 133.693 297.727 133.693C304.289 133.693 309.815 135.114 314.303 137.955C318.82 140.795 322.13 144.773 324.232 149.886C326.335 154.972 327.045 160.923 326.363 167.741C325.71 174.418 323.835 180.284 320.738 185.341C317.67 190.369 313.621 194.29 308.593 197.102C303.593 199.886 297.854 201.278 291.377 201.278ZM292.357 187.898C295.596 187.898 298.394 186.989 300.752 185.17C303.11 183.352 304.999 180.895 306.42 177.798C307.84 174.673 308.735 171.151 309.104 167.23C309.502 163.395 309.303 159.943 308.508 156.875C307.741 153.807 306.391 151.378 304.46 149.588C302.528 147.798 299.971 146.903 296.789 146.903C293.55 146.903 290.738 147.827 288.352 149.673C285.965 151.491 284.062 153.963 282.641 157.088C281.249 160.185 280.354 163.693 279.957 167.614C279.587 171.477 279.786 174.943 280.553 178.011C281.32 181.051 282.684 183.466 284.644 185.256C286.604 187.017 289.175 187.898 292.357 187.898ZM366.612 200H335.972L344.665 112.727H375.177C383.927 112.727 391.285 114.503 397.251 118.054C403.245 121.577 407.62 126.634 410.376 133.224C413.16 139.815 414.097 147.685 413.188 156.832C412.279 165.838 409.836 173.565 405.859 180.014C401.881 186.463 396.555 191.406 389.879 194.844C383.231 198.281 375.475 200 366.612 200ZM354.85 185H366.867C372.577 185 377.492 183.949 381.612 181.847C385.731 179.744 388.998 176.534 391.413 172.216C393.827 167.869 395.362 162.372 396.015 155.724C396.668 149.276 396.242 143.991 394.737 139.872C393.231 135.724 390.674 132.67 387.066 130.71C383.487 128.722 378.884 127.727 373.259 127.727H360.56L354.85 185ZM452.052 201.278C445.404 201.278 439.808 199.915 435.262 197.188C430.717 194.432 427.393 190.54 425.29 185.511C423.217 180.455 422.535 174.489 423.245 167.614C423.898 160.881 425.773 154.972 428.87 149.886C431.995 144.773 436.043 140.795 441.015 137.955C446.015 135.114 451.697 133.693 458.06 133.693C462.265 133.693 466.143 134.375 469.694 135.739C473.245 137.074 476.271 139.119 478.771 141.875C481.299 144.602 483.131 148.04 484.268 152.188C485.433 156.335 485.731 161.222 485.163 166.847L484.694 171.747H430.063L431.086 160.838H469.566C469.822 158.082 469.467 155.639 468.501 153.509C467.563 151.378 466.114 149.702 464.154 148.48C462.194 147.259 459.836 146.648 457.08 146.648C454.239 146.648 451.64 147.344 449.282 148.736C446.924 150.128 444.992 151.946 443.487 154.19C442.009 156.435 441.114 158.864 440.802 161.477L439.651 171.918C439.31 175.526 439.651 178.551 440.674 180.994C441.697 183.409 443.302 185.241 445.489 186.491C447.705 187.713 450.418 188.324 453.629 188.324C455.731 188.324 457.677 188.026 459.467 187.429C461.256 186.832 462.833 185.952 464.197 184.787C465.589 183.594 466.697 182.131 467.521 180.398L483.202 181.719C481.924 185.668 479.836 189.105 476.938 192.031C474.069 194.957 470.532 197.23 466.327 198.849C462.123 200.469 457.364 201.278 452.052 201.278Z" fill="#C8C8C8"/>
<path d="M172.304 316L178.824 250.545H195.145L193.994 261.923H194.761C196.523 258.116 199.094 255.134 202.474 252.974C205.855 250.787 209.761 249.693 214.193 249.693C218.625 249.693 222.29 250.801 225.188 253.017C228.114 255.205 229.946 258.173 230.685 261.923H231.366C233.099 258.202 235.827 255.233 239.548 253.017C243.27 250.801 247.517 249.693 252.29 249.693C258.341 249.693 263.085 251.625 266.523 255.489C269.96 259.324 271.324 264.835 270.614 272.023L266.224 316H249.136L253.27 275.134C253.611 271.327 252.858 268.5 251.011 266.653C249.165 264.807 246.75 263.884 243.767 263.884C240.33 263.884 237.531 264.977 235.372 267.165C233.213 269.324 231.977 272.165 231.665 275.688L227.574 316H210.955L215.131 274.622C215.415 271.355 214.69 268.756 212.957 266.824C211.253 264.864 208.852 263.884 205.756 263.884C203.682 263.884 201.736 264.409 199.918 265.46C198.128 266.511 196.651 267.989 195.486 269.892C194.321 271.795 193.611 273.997 193.355 276.497L189.392 316H172.304ZM281.48 316L290.173 228.727H348.17L346.722 243.173H306.111L303.938 265.119H341.565L340.116 279.565H302.489L300.358 301.554H341.182L339.69 316H281.48ZM375.134 277.946L371.384 316H354.296L362.989 228.727H379.609L376.327 261.923H377.094C378.969 258.116 381.64 255.134 385.106 252.974C388.6 250.787 392.847 249.693 397.847 249.693C402.393 249.693 406.256 250.673 409.438 252.634C412.648 254.565 415.006 257.378 416.512 261.071C418.018 264.736 418.515 269.153 418.004 274.324L413.827 316H396.739L400.617 277.222C401.015 273.045 400.262 269.793 398.359 267.463C396.455 265.134 393.6 263.969 389.793 263.969C387.208 263.969 384.864 264.523 382.762 265.631C380.66 266.739 378.941 268.344 377.606 270.446C376.271 272.52 375.447 275.02 375.134 277.946ZM429.136 316L437.83 228.727H494.847L493.398 243.173H453.767L451.594 265.119H487.389L485.94 279.565H450.145L446.523 316H429.136ZM498.863 316L505.383 250.545H522.471L515.908 316H498.863ZM515.141 241.724C512.556 241.724 510.383 240.858 508.621 239.125C506.86 237.364 506.05 235.276 506.192 232.861C506.363 230.418 507.428 228.33 509.388 226.597C511.377 224.864 513.664 223.997 516.249 223.997C518.863 223.997 521.036 224.864 522.769 226.597C524.502 228.33 525.298 230.418 525.156 232.861C525.013 235.276 523.962 237.364 522.002 239.125C520.042 240.858 517.755 241.724 515.141 241.724ZM556.711 228.727L548.018 316H530.972L539.665 228.727H556.711Z" fill="#C8C8C8"/>
</svg>
