<svg width="278" height="319" viewBox="0 0 278 319" fill="none" xmlns="http://www.w3.org/2000/svg">
<g clip-path="url(#clip0_431_2)">
<rect width="278" height="319" fill="black"/>
<path d="M177.463 99.8551H159.991C159.878 97.3551 159.366 95.1392 158.457 93.2074C157.577 91.2472 156.355 89.5852 154.793 88.2216C153.259 86.8295 151.455 85.7926 149.381 85.1108C147.307 84.4006 145.006 84.0455 142.477 84.0455C137.79 84.0455 133.543 85.2244 129.736 87.5824C125.957 89.9119 122.847 93.3068 120.403 97.767C117.96 102.227 116.426 107.639 115.801 114.003C115.176 120.281 115.602 125.551 117.08 129.812C118.585 134.074 120.915 137.284 124.068 139.443C127.222 141.602 131 142.682 135.403 142.682C138.017 142.682 140.489 142.355 142.818 141.702C145.148 141.02 147.264 140.026 149.168 138.719C151.071 137.412 152.719 135.821 154.111 133.946C155.503 132.043 156.54 129.898 157.222 127.511L174.778 127.554C173.813 131.616 172.193 135.494 169.92 139.188C167.676 142.852 164.835 146.119 161.398 148.989C157.96 151.83 154.011 154.074 149.551 155.722C145.091 157.369 140.176 158.193 134.807 158.193C126.966 158.193 120.134 156.403 114.31 152.824C108.514 149.216 104.168 144.017 101.27 137.227C98.4006 130.437 97.4347 122.27 98.3722 112.724C99.3097 103.349 101.838 95.3665 105.957 88.7756C110.105 82.1847 115.347 77.1705 121.682 73.733C128.045 70.267 135.006 68.5341 142.562 68.5341C147.591 68.5341 152.207 69.2301 156.412 70.6222C160.616 72.0142 164.253 74.0597 167.321 76.7585C170.418 79.429 172.847 82.7102 174.608 86.6023C176.369 90.4659 177.321 94.8835 177.463 99.8551Z" fill="#C8C8C8"/>
<path d="M95.304 246L101.824 180.545H118.145L116.994 191.923H117.761C119.523 188.116 122.094 185.134 125.474 182.974C128.855 180.787 132.761 179.693 137.193 179.693C141.625 179.693 145.29 180.801 148.188 183.017C151.114 185.205 152.946 188.173 153.685 191.923H154.366C156.099 188.202 158.827 185.233 162.548 183.017C166.27 180.801 170.517 179.693 175.29 179.693C181.341 179.693 186.085 181.625 189.523 185.489C192.96 189.324 194.324 194.835 193.614 202.023L189.224 246H172.136L176.27 205.134C176.611 201.327 175.858 198.5 174.011 196.653C172.165 194.807 169.75 193.884 166.767 193.884C163.33 193.884 160.531 194.977 158.372 197.165C156.213 199.324 154.977 202.165 154.665 205.688L150.574 246H133.955L138.131 204.622C138.415 201.355 137.69 198.756 135.957 196.824C134.253 194.864 131.852 193.884 128.756 193.884C126.682 193.884 124.736 194.409 122.918 195.46C121.128 196.511 119.651 197.989 118.486 199.892C117.321 201.795 116.611 203.997 116.355 206.497L112.392 246H95.304Z" fill="#C8C8C8"/>
</g>
<defs>
<clipPath id="clip0_431_2">
<rect width="278" height="319" fill="white"/>
</clipPath>
</defs>
</svg>
